<?xml version="1.0" encoding="utf-8"?>
<!-- Generator: Adobe Illustrator 22.0.1, SVG Export Plug-In . SVG Version: 6.00 Build 0)  -->
<svg version="1.1" id="Layer_3" xmlns="http://www.w3.org/2000/svg" xmlns:xlink="http://www.w3.org/1999/xlink" x="0px" y="0px"
	 viewBox="0 0 425.2 133.2" style="enable-background:new 0 0 425.2 133.2;" xml:space="preserve">
<style type="text/css">
	.st0{fill:none;}
	.st1{fill:#ED1C24;}
	.st2{fill:#FFFFFF;}
</style>
<rect class="st0" width="425.2" height="133.2"/>
<g>
	<g>
		<path class="st1" d="M50.9,6.4c4.6,0.8,8,0.7,12.7,3.5c1.5,0.9,1.8,3.6,1.7,3.5c0.5,2.7-0.8,6.1-1.7,9.4
			c-3.1,10.5-24.1,24-20.5,24.7c-0.6-0.1,20.3,9.3,21.4,20.4c2,19.7-13.4,32-22.1,45.9c-3.5,5.7-9.7,9.6-15.3,11.1
			c-2.8,0.8-9.8,0.5-10.3-2.6c-0.8-5.9,2.4-16.9,0-23.8c-4.5-17.4-2-38.5-6.1-55.3c-1.1-4.4-6.3-12.9-3.3-19.7
			c3.1-7.1,7-12.4,12.7-16c0,0,4.6-1.9,13.1-1.4C33.1,6,43.8,5.2,50.9,6.4z M30.3,61.7C27,63,33,102.9,33,102.6
			c0.7,2.9,9.1-11.4,12.7-17.7c3.8-6.8-1.6-14.8-5-19C38.3,63,33.1,60.6,30.3,61.7z M35.6,21.8c-7.3,1.4-7.5,14.2-5.9,15.3
			c2.4,1.7,5.7-1.3,9.2-4.3c3.3-2.8,8.1-6.3,5.9-12C43.5,17.5,39.2,20.6,35.6,21.8z"/>
		<path class="st2" d="M23.8,130.2c-6.9,0-11.3-2.7-11.9-7.3c-0.4-3,0-6.5,0.3-10.2c0.5-4.5,1-9.6-0.1-12.7c0-0.1-0.1-0.3-0.1-0.4
			C9.5,90.2,9,79.9,8.5,70c-0.4-9.3-0.8-18-2.7-25.7c-0.2-0.8-0.7-2-1.2-3.4c-1.9-5-4.9-12.5-1.8-19.5C6.5,13,11.2,7.2,17.4,3.2
			c0.2-0.2,0.5-0.3,0.8-0.4c0.5-0.2,4.7-1.9,12-1.9c1,0,2,0,3,0.1c1.1-0.1,4.4-0.3,8.3-0.3c4.1,0,7.5,0.2,10.3,0.7
			c0.9,0.1,1.7,0.3,2.5,0.4c3.6,0.5,7.3,1,11.9,3.7c2.7,1.6,3.9,4.6,4.1,6.9c0.6,3.5-0.4,7-1.4,10.1c-0.2,0.5-0.3,1-0.5,1.5
			c-2.2,7.5-10.6,15.1-16.7,20.6c-0.4,0.3-0.8,0.7-1.2,1.1c11.8,6.9,18.2,14.1,18.9,21.5c1.7,16.6-7.4,28.5-15.5,39
			c-2.7,3.5-5.2,6.8-7.3,10.1c-3.7,6.1-10.5,11.1-18.2,13.3C26.8,130.1,25,130.2,23.8,130.2z M21.6,120c0.5,0.1,1.2,0.2,2.1,0.2
			c1,0,1.7-0.1,1.9-0.2c4.1-1.2,9.5-4.1,12.4-8.9c2.4-3.8,5.2-7.5,7.9-11c7.6-9.9,14.8-19.2,13.5-31.8c-0.4-3.4-5.3-9.4-18.1-16.1
			c-0.1-0.1-0.3-0.2-0.4-0.2c-1.5-0.6-2.7-1.9-3.1-3.5c-1-3.8,1.5-6.1,7.1-11.1c4.6-4.2,12.4-11.2,13.8-16c0.2-0.5,0.3-1.1,0.5-1.7
			c0.6-1.8,1.3-4.3,1.1-5.4c0,0,0,0,0,0l0,0c0-0.2-0.1-0.3-0.1-0.5c0,0,0,0,0,0c-2.5-1.4-4.7-1.7-7.5-2.1c-0.9-0.1-1.8-0.3-2.7-0.4
			c-2.2-0.4-5.2-0.6-8.6-0.6c-4.3,0-7.8,0.3-7.9,0.3c-0.2,0-0.5,0-0.7,0c-0.9-0.1-1.8-0.1-2.7-0.1c-4.2,0-6.9,0.7-7.8,1
			C18,14.8,14.8,19,12,25.4c-1.4,3.2,0.5,8,2,11.8c0.6,1.6,1.2,3.2,1.6,4.6c2.1,8.7,2.6,18.3,3,27.6c0.4,9.4,0.9,19.1,3,27.5
			c1.7,5.2,1.1,11.3,0.5,16.8C21.9,116,21.6,118.3,21.6,120z M33.3,108C33.3,108,33.3,108,33.3,108c-2.5,0-4.7-1.8-5.2-4.3
			c0-0.2-0.1-0.3-0.1-0.5l-0.1-0.5c-1.5-10.2-2.3-17.5-2.7-21.8c-1.7-17.4-1.1-22.1,3.2-23.8c1.1-0.4,2.2-0.6,3.5-0.6
			c4.2,0,9.6,2.7,12.5,6.3C54,74.3,52.8,82.5,50,87.3c-1.4,2.5-4.2,7.3-6.9,11.5C39,105.3,36.7,108,33.3,108z M34.3,67.2
			c0,3.8,0.5,11.2,2.1,23.5c1.4-2.3,3.1-5.1,4.9-8.3c2.3-4-1.9-10.1-4.6-13.3C36.2,68.4,35.3,67.7,34.3,67.2z M31.2,42.7L31.2,42.7
			c-1.6,0-3.1-0.5-4.4-1.4c-4.2-3-2.7-11.1-2.4-12.7c1.3-6.3,4.9-10.5,9.8-11.6c0.6-0.2,1.3-0.5,2-0.8c2.1-0.9,4.2-1.8,6.5-1.8
			c3.1,0,5.6,1.7,6.7,4.6c3.3,8.6-3.1,14.1-6.6,17l-1.4,1.2C38.2,40,35.1,42.7,31.2,42.7z M39.2,25.8c-0.7,0.3-1.3,0.5-2,0.8
			c-0.2,0.1-0.4,0.1-0.6,0.2c-0.2,0-0.7,0.1-1.3,1.1c-0.4,0.7-0.7,1.5-0.9,2.3c0.2-0.2,0.5-0.4,0.7-0.6l1.4-1.2
			C37.7,27.3,38.6,26.5,39.2,25.8z"/>
	</g>
	<g>
		<path class="st1" d="M142.3,103.9c0.1,3.8-3.3,10.1-8.3,12.3c-9.3,4-15.7-5-18.8-10.1c-2.7-4.5-2.1-13.6-1.9-12.7
			c-2.5-12.6-13.9,33.4-32.2,22.8C75,97.4,79.4,77.5,91.4,63.6c4.5-5,10.5-8.2,17.1-9.6c5.2-1.1,22.2-4.5,23.8,4.4
			c0.6,3.1-8.2,34.1-1,41.8C135.2,104.4,142.2,99.6,142.3,103.9L142.3,103.9z M107.3,66c-12.5,15-11.9,24.3-12,23.8
			c0.9,6.8,10.3-11.2,15.5-16.4C112.7,70.6,111.2,61.2,107.3,66z"/>
		<path class="st2" d="M86.6,122.8c-2.7,0-5.4-0.8-8-2.3c-1.1-0.6-1.9-1.6-2.2-2.8c-6.4-19.9-2.1-41.8,11.2-57.4
			c5.1-5.7,11.9-9.5,19.8-11.2c2.2-0.5,8-1.7,13.6-1.7c12.5,0,15.5,6.3,16.2,10c0.3,1.7,0,3.6-1.1,9.4c-1.2,6.5-4.8,26.1-1.2,29.9
			c0.1,0.1,0.3,0.3,1.6,0.3c0.5,0,1,0,1.5-0.1c0.6,0,1.2-0.1,1.7-0.1c5.5,0,7.5,3.7,7.6,6.8c0.1,5.8-4.4,14-11.4,17
			c-2.2,0.9-4.4,1.4-6.5,1.4c-6.9,0-13.1-4.5-18.5-13.5c-0.8-1.3-1.4-3-1.9-4.8C104,112.3,96.8,122.8,86.6,122.8
			C86.6,122.8,86.6,122.8,86.6,122.8z M85.2,112.5c0.5,0.1,0.9,0.2,1.4,0.2c5.6,0,11.8-10.5,15.5-16.8c3.7-6.3,5.7-9.8,9.8-9.8
			c1.5,0,5.1,0.6,6.2,6.2c0.2,0.8,0.1,1.5-0.1,2.2c-0.1,2,0.2,6.8,1.4,8.8c3.4,5.7,6.8,8.6,9.9,8.6c0.8,0,1.7-0.2,2.6-0.6
			c1.9-0.8,3.4-2.7,4.3-4.5c-1.5,0-5.6-0.1-8.8-3.5c-6.4-6.9-4.3-22.2-1.3-38.5c0.4-2.2,0.9-4.9,1-6c-0.6-1.2-3.7-1.6-6.3-1.6
			c-4.5,0-9.6,1.1-11.5,1.5c-5.8,1.2-10.8,4-14.4,8C84.5,79.2,80.8,96.5,85.2,112.5z M96.3,96.2C96.3,96.2,96.3,96.2,96.3,96.2
			c-2.4,0-5.4-1.5-5.9-5.8c-0.1-0.5-0.1-0.9,0-1.3c0.3-3.8,2.2-13.2,13.1-26.3c2.1-2.6,4.4-3.1,5.9-3.1c2.5,0,4.6,1.4,5.9,3.8
			c1.8,3.3,2.1,9.2-0.2,12.6c-0.2,0.3-0.4,0.5-0.6,0.8c-1.5,1.5-3.9,4.9-6,7.9C103.3,92.2,100.5,96.2,96.3,96.2z"/>
	</g>
	<g>
		<path class="st1" d="M175.8,54.6c0.1,4.7,17.7-14.1,27.3-11.9c2.9,0.7,6,0.8,5,3.3c-4,10.3-25.9,15.7-24.9,21.2
			c2.2,12.6,25.4,28.2,32.5,40.2c4.1,6.8-4.9,8.8-10.3,7.5c-7.6-1.8-8.9-11.5-15.3-15.1c-7.1-3.5-17.2-19.3-16.9-14.6
			c0-0.6,3.4,20.7,0.5,32.5c-0.8,3.2-9.4,6.2-12.7,4.2c0.6,0.4-3.5-1.4-3.3-4.2c-0.2-26.3-3-57.1,3.3-83.5c0.9-3.8,0-8.9,2.6-12
			c2.7-3.1,6.5-6,10.1-5c-0.5-0.1,9.6,3.1,7.8,7.7C178.3,33.8,176.4,44.2,175.8,54.6L175.8,54.6z"/>
		<path class="st2" d="M164.1,127.6c-1.9,0-3.5-0.4-4.9-1.1c-2-0.8-3.6-2.5-3.8-2.7c-2.1-2.3-2.5-4.6-2.5-6.2
			c0-5.6-0.2-11.4-0.4-17.5c-0.6-22.5-1.3-45.8,3.8-67c0.2-0.9,0.3-2.1,0.4-3.4c0.2-3.3,0.5-7.4,3.3-10.7c2.7-3.2,7.1-7,12.4-7
			c1,0,1.9,0.1,2.8,0.4c0,0,0,0,0,0c0.2,0.1,0.4,0.1,0.6,0.2c3.8,1.4,8.6,3.9,10.4,7.9c0.9,2,1,4.1,0.2,6.2
			c-2.3,5.9-3.9,12.7-4.9,20c6-4.2,13.3-9,19.9-9c1,0,1.9,0.1,2.8,0.3c0.4,0.1,0.8,0.2,1.1,0.2c2.5,0.5,5.6,1.1,7.2,4.1
			c0.9,1.7,1,3.7,0.2,5.7c-2.8,7.2-11.1,11.9-17.7,15.6c-2.2,1.2-5.2,3-6.6,4.1c1.9,5.8,9.7,13.5,16.6,20.3c6,5.9,11.7,11.6,15,17
			c2.8,4.7,1.6,8.2,0.6,9.9c-2,3.5-6.4,5.5-11.9,5.5c-1.5,0-3.1-0.2-4.4-0.5c-6.2-1.5-9.3-6.3-11.8-10.1c-1.5-2.3-2.9-4.5-4.7-5.5
			c-2.7-1.4-5.5-3.9-8.1-6.6c0.6,8.9,0.2,16.1-1,21.2C177.4,124.5,169.4,127.6,164.1,127.6z M163.7,117.5c0.1,0,0.2,0,0.5,0
			c1.9,0,4.2-1,5.1-1.6c2.1-9.6-0.2-26.7-0.7-29.6c-0.1-0.3-0.1-0.6-0.1-0.8c-0.1-2.3,0.7-3.7,1.5-4.5c1-1.1,2.4-1.7,3.9-1.7
			c3,0,4.9,2.1,8.9,6.7c2.8,3.2,7.1,8,9.8,9.3c0.1,0,0.2,0.1,0.3,0.1c3.9,2.2,6.2,5.7,8.2,8.8c2.2,3.3,3.6,5.3,5.8,5.8
			c0.6,0.1,1.4,0.2,2.1,0.2c1.2,0,2.1-0.2,2.6-0.4c-2.6-4.3-8.1-9.7-13.4-14.9c-8.9-8.8-18.2-17.9-19.8-26.9
			c-1.1-6,4.9-9.4,11.8-13.3c3.5-2,8-4.5,10.8-7.2c-4,0.3-10.7,5-14.7,7.9c-4.6,3.2-7.1,4.9-9.8,4.9c0,0,0,0,0,0
			c-3.1,0-5.6-2.4-5.7-5.6c0-0.1,0-0.3,0-0.4c0.5-10.9,2.6-21.3,5.8-30.2c-0.7-0.6-2.1-1.4-4.2-2.2c-0.7,0-2.6,0.9-4.9,3.5
			c-0.6,0.8-0.8,3-0.9,4.8c-0.1,1.6-0.2,3.3-0.6,5.1c-4.8,20-4.1,42.6-3.5,64.5c0.2,6,0.3,11.7,0.4,17.3c0.1,0,0.1,0.1,0.2,0.1
			C163.3,117.3,163.5,117.4,163.7,117.5z"/>
	</g>
	<g>
		<path class="st1" d="M247.9,54.6c0.1,4.7,17.7-14.1,27.3-11.9c2.9,0.7,6,0.8,5,3.3c-4,10.3-25.9,15.7-24.9,21.2
			c2.2,12.6,25.4,28.2,32.5,40.2c4.1,6.8-4.9,8.8-10.3,7.5c-7.6-1.8-8.9-11.5-15.3-15.1c-7.1-3.5-17.2-19.3-16.9-14.6
			c0-0.6,3.4,20.7,0.5,32.5c-0.8,3.2-9.4,6.2-12.7,4.2c0.6,0.4-3.5-1.4-3.3-4.2c-0.2-26.3-3-57.1,3.3-83.5c0.9-3.8,0-8.9,2.6-12
			c2.7-3.1,6.5-6,10.1-5c-0.5-0.1,9.6,3.1,7.8,7.7C250.3,33.8,248.4,44.2,247.9,54.6L247.9,54.6z"/>
		<path class="st2" d="M236.2,127.6c-1.9,0-3.5-0.4-4.9-1.1c-2-0.8-3.6-2.5-3.8-2.7c-2.1-2.3-2.5-4.6-2.5-6.2
			c0-5.6-0.2-11.4-0.4-17.5c-0.6-22.5-1.3-45.8,3.8-67c0.2-0.9,0.3-2.1,0.4-3.4c0.2-3.3,0.5-7.4,3.3-10.7c2.7-3.2,7.1-7,12.4-7
			c1,0,1.9,0.1,2.8,0.4c0.2,0.1,0.4,0.1,0.6,0.2c3.8,1.4,8.6,3.9,10.4,7.9c0.9,2,1,4.1,0.2,6.2c-2.3,5.9-3.9,12.7-4.9,20
			c6-4.2,13.3-9,19.9-9c1,0,1.9,0.1,2.8,0.3c0.4,0.1,0.8,0.2,1.1,0.2c2.5,0.5,5.6,1.1,7.2,4.1c0.9,1.7,1,3.7,0.2,5.7
			c-2.8,7.2-11.1,11.9-17.7,15.6c-2.2,1.2-5.2,3-6.6,4.1c1.9,5.8,9.7,13.5,16.6,20.3c6,5.9,11.7,11.6,15,17c2.8,4.7,1.6,8.2,0.6,9.9
			c-2,3.5-6.4,5.5-11.9,5.5c-1.5,0-3.1-0.2-4.4-0.5c-6.2-1.5-9.3-6.3-11.8-10.1c-1.5-2.3-2.9-4.5-4.7-5.5c-2.7-1.4-5.5-3.9-8.1-6.6
			c0.6,8.9,0.2,16.1-1,21.2C249.5,124.5,241.4,127.6,236.2,127.6z M235.7,117.5c0.1,0,0.2,0,0.5,0c1.9,0,4.2-1,5.1-1.6
			c2.1-9.6-0.2-26.7-0.7-29.6c-0.1-0.3-0.1-0.6-0.1-0.8c-0.1-2.3,0.7-3.7,1.5-4.5c1-1.1,2.4-1.7,3.9-1.7c3,0,4.9,2.1,8.9,6.7
			c2.8,3.2,7.1,8,9.8,9.3c0.1,0,0.2,0.1,0.3,0.1c3.9,2.2,6.2,5.7,8.2,8.8c2.2,3.3,3.6,5.3,5.8,5.8c0.6,0.1,1.4,0.2,2.1,0.2
			c1.1,0,2.1-0.2,2.6-0.4c-2.6-4.3-8.1-9.7-13.4-14.9c-8.9-8.8-18.2-17.9-19.8-26.9c-1.1-6,4.9-9.4,11.8-13.3c3.5-2,8-4.5,10.8-7.2
			c-4,0.3-10.7,5-14.7,7.9c-4.6,3.2-7.1,4.9-9.8,4.9c0,0,0,0,0,0c-3.1,0-5.6-2.4-5.7-5.6c0-0.1,0-0.3,0-0.4
			c0.5-10.9,2.6-21.3,5.8-30.2c-0.7-0.6-2.1-1.4-4.2-2.2c0,0,0,0,0,0c-0.7,0-2.6,0.9-4.8,3.5c-0.7,0.8-0.8,3-0.9,4.8
			c-0.1,1.6-0.2,3.3-0.6,5.1c-4.8,20-4.1,42.6-3.5,64.5c0.2,6,0.3,11.7,0.4,17.3c0.1,0,0.1,0.1,0.2,0.1
			C235.3,117.3,235.5,117.4,235.7,117.5z"/>
	</g>
	<g>
		<path class="st1" d="M341.4,96.8c-3,9.3-11.7,18.9-24,20.4c1.3-0.2-1.7,1-3.3,0.9c-4.5-0.5-3.8-0.7-6.8-4.2
			c-3.1-3.6-3.4-5.4-4.2-10.1c-1.1-6.6-3.4-12-4.2-17.9c-1.4-9.9,0.3-25.4,7.8-31.1c4.9-4.4,11.1-7.3,17.7-5
			c4.2,1.4,6.4,2.6,8.5,6.8c5,14.8-8.2,25.6-18.1,31.1c-2,1.2,0.3,7.6,2.4,13.4c1.2,3.1,3.3,6.6,6.1,4.4c5-3.3,6.8-11.5,14.4-12
			C337.9,93.4,342.7,92.7,341.4,96.8z M319.1,69.7c1.2-1.9,3.6-3.8,1.6-5.6c-5.6-5-7.6,11.2-7.5,10.3
			C312.4,79.4,317.7,72.3,319.1,69.7z"/>
		<path class="st2" d="M314.4,123.1c-0.3,0-0.6,0-0.8,0c-4.9-0.5-6.4-1.3-9-4.5c-0.3-0.4-0.7-0.8-1.1-1.4c-3.8-4.5-4.4-7.2-5.3-12.5
			c-0.5-2.9-1.3-5.6-2-8.3c-0.9-3.1-1.7-6.3-2.2-9.8c-1.4-10.2,0-28.1,9.6-35.7c7.1-6.3,15.2-8.4,22.6-5.9c4.4,1.5,8.4,3.2,11.4,9.3
			c0.1,0.2,0.2,0.4,0.3,0.6c4.5,13.1-2.2,26.1-18.5,36c0.5,2.3,2,6.5,2.8,8.4c0.1,0.2,0.1,0.3,0.2,0.5c0.6-0.7,1.3-1.6,1.9-2.5
			c2.6-3.5,6.2-8.4,13.2-8.9c0.3,0,0.7-0.1,1.2-0.1c2.9,0,5.2,1.1,6.7,3c0.8,1.1,2,3.5,0.9,7c-3.3,10.2-12.7,21.2-26.5,23.6
			C317.3,123.1,314.5,123.1,314.4,123.1z M312.9,112.9c0.3,0.1,0.8,0.1,1.5,0.2c0,0,0.1,0,0.2,0c0.6-0.4,1.4-0.7,2.2-0.8
			c1.7-0.2,3.3-0.6,4.8-1.1c-2.7,0-6.4-1.5-8.9-8.3c-3.1-8.3-6-16.2-0.2-19.5c9.2-5.2,19.5-13.8,15.9-24.9c-1.2-2.3-2.2-2.9-5.5-4
			c-1-0.3-2-0.5-3-0.5c-3.9,0-7.4,2.5-9.8,4.6c-0.1,0.1-0.2,0.2-0.3,0.2c-5.2,4-7.2,16.9-5.9,26.5c0.4,2.8,1.1,5.5,1.9,8.5
			c0.8,2.9,1.6,5.9,2.2,9.3c0.7,4.3,0.9,5.1,3.1,7.7c0.5,0.6,1,1.2,1.3,1.6C312.6,112.5,312.7,112.7,312.9,112.9z M333.6,101.5
			c-0.4,0.5-0.9,1.1-1.3,1.8c-0.2,0.2-0.3,0.4-0.5,0.6C332.4,103.1,333,102.3,333.6,101.5z M313.6,81.1
			C313.6,81.1,313.6,81.1,313.6,81.1c-1.6,0-3.1-0.7-4.1-1.9c-1.8-2.1-1.4-4.7-1.3-5.6h0c0,0,0,0,0,0h0c0,0,0,0,0,0c0,0,0,0,0-0.1
			c0.2-1.4,0.7-4,1.4-6.3c1.9-6,4.9-9.1,8.9-9.1c1.3,0,3.3,0.4,5.4,2.2c2.3,2.1,4.2,5.7,0,11.1c-0.2,0.3-0.4,0.5-0.6,0.7
			C322.1,74.6,318.1,81.1,313.6,81.1z"/>
	</g>
	<g>
		<path class="st1" d="M377.2,51.4c0-0.6-4.2,38.2,0,31.3c-0.1,0.2,9.9-17.7,18.6-26.4c4.4-4.4,7.5-5.3,10.1-4.9
			c4,0.6,8.2,1.7,8.5,5.7c1,13.6-1.9,32.6,0,48.5c1.2,10.2,7,11.5,2.8,13.7c-4.7,2.5-10.4,5.1-15.5,2.4c-2.5-1.3-4.1-1.7-4.3-4.2
			c-1.3-13.6,3.1-46.9-1.6-39.3c0.2-0.3-13.8,21.7-16,34.1c-0.9,5.3-1,6.3-3.7,7c-4.5,1.2-11.7,2.3-13.4-3.7
			c-6.1-17.7-3-41.4-2.6-60.2c1.7-3.7,4.2-3.7,7-7C372.7,44.8,377.7,45.2,377.2,51.4z"/>
		<path class="st2" d="M406.4,128c-2.5,0-4.8-0.6-7-1.6c-0.3-0.1-0.6-0.3-0.8-0.4c-2.3-1.1-5.8-2.8-6.2-7.7
			c-0.6-5.8-0.2-14.4,0.2-22.8c0-0.5,0-1,0.1-1.6c-3.5,6.7-7,14.3-8,19.5l-0.1,0.6c-0.9,5.2-1.6,8.9-7.2,10.4
			c-2.8,0.7-5.3,1.1-7.4,1.1c-6.1,0-10.4-2.9-12-8c-5-14.7-4.1-32.8-3.4-48.9c0.2-4.6,0.4-8.9,0.5-13c0-0.7,0.2-1.4,0.5-2.1
			c1.6-3.3,3.6-4.7,5.2-5.9c0.9-0.7,1.6-1.2,2.4-2.1c0.3-0.3,0.6-0.6,1-0.9c3.2-2.2,6.4-3.4,9.2-3.4c2.5,0,4.8,0.9,6.4,2.6
			c1.3,1.3,2.7,3.8,2.4,8c0,0.1,0,0.2,0,0.3c-0.4,3-0.9,9.3-1.4,15.3c4.2-6.3,8.1-11.2,11.5-14.7c5-5,9.5-7,14.4-6.3
			c3,0.4,12.2,1.8,12.8,10.3c0.5,6.3,0.1,13.4-0.2,21c-0.4,9.3-0.8,18.8,0.2,27.3c0.5,3.8,1.7,6,2.7,7.7c1,1.7,2.2,3.9,1.4,6.6
			c-0.8,2.7-3.1,4-3.9,4.4C415.6,126,411.2,128,406.4,128z M402.3,116.6c0.2,0.1,0.5,0.3,0.8,0.4c0.3,0.1,0.6,0.3,0.9,0.5
			c0.7,0.4,1.5,0.6,2.4,0.6c1.9,0,4-0.8,6.1-1.8c-1.1-2.2-2.5-5.3-3-9.9c-1.1-9.3-0.7-19.3-0.2-29c0.3-7.2,0.6-14.1,0.2-19.8
			c-0.3-0.2-1.2-0.7-4.3-1.2c-0.1,0-0.3,0-0.4,0c-1.3,0-3.2,1.2-5.4,3.5c-7.9,8-17.3,24.5-17.8,25.3c0,0.1-0.1,0.2-0.1,0.2
			c-1.6,2.7-3.7,3.2-5.1,3.2c-1.1,0-4.9-0.4-5.7-5.9c-0.2-1.2-0.3-2.9-0.3-5c0-4,0.3-9.7,0.9-17c0.2-2.7,0.5-5.2,0.6-6.9
			c0.1-0.7,0.1-1.5,0.3-2.2c0,0,0,0,0,0c-0.5,0.2-1.1,0.5-1.8,0.9c-1.4,1.5-2.7,2.5-3.7,3.2c-0.8,0.6-1.3,0.9-1.6,1.3
			c-0.1,3.8-0.3,7.8-0.5,12c-0.7,15.2-1.6,32.3,2.9,45.2c0,0.1,0,0.1,0.1,0.2c0.1,0.4,0.3,1,2.4,1c1.2,0,2.6-0.2,4.3-0.6
			c0.1-0.7,0.3-1.6,0.5-2.6l0.1-0.6c1-5.6,4.1-13.4,9.3-23.1c2-3.7,3.9-7,5.1-9c0.8-1.4,1.5-2.5,2-3.3c0.1-0.1,0.1-0.2,0.2-0.4l0,0
			c0,0,0,0,0,0l0,0c1.4-2.3,3.2-3.5,5.4-3.5c1.5,0,2.9,0.6,3.9,1.7c2.4,2.5,2.4,6.1,1.7,21.9C402.3,103.2,401.9,111.4,402.3,116.6z"
			/>
	</g>
</g>
<path class="st1" d="M50.9,6.4c4.6,0.8,8,0.7,12.7,3.5c1.5,0.9,1.8,3.6,1.7,3.5c0.5,2.7-0.8,6.1-1.7,9.4
	c-3.1,10.5-24.1,24-20.5,24.7c-0.6-0.1,20.3,9.3,21.4,20.4c2,19.7-13.4,32-22.1,45.9c-3.5,5.7-9.7,9.6-15.3,11.1
	c-2.8,0.8-9.8,0.5-10.3-2.6c-0.8-5.9,2.4-16.9,0-23.8c-4.5-17.4-2-38.5-6.1-55.3c-1.1-4.4-6.3-12.9-3.3-19.7c3.1-7.1,7-12.4,12.7-16
	c0,0,4.6-1.9,13.1-1.4C33.1,6,43.8,5.2,50.9,6.4z M30.3,61.7C27,63,33,102.9,33,102.6c0.7,2.9,9.1-11.4,12.7-17.7
	c3.8-6.8-1.6-14.8-5-19C38.3,63,33.1,60.6,30.3,61.7z M35.6,21.8c-7.3,1.4-7.5,14.2-5.9,15.3c2.4,1.7,5.7-1.3,9.2-4.3
	c3.3-2.8,8.1-6.3,5.9-12C43.5,17.5,39.2,20.6,35.6,21.8z"/>
<path class="st1" d="M142.3,103.9c0.1,3.8-3.3,10.1-8.3,12.3c-9.3,4-15.7-5-18.8-10.1c-2.7-4.5-2.1-13.6-1.9-12.7
	c-2.5-12.6-13.9,33.4-32.2,22.8C75,97.4,79.4,77.5,91.4,63.6c4.5-5,10.5-8.2,17.1-9.6c5.2-1.1,22.2-4.5,23.8,4.4
	c0.6,3.1-8.2,34.1-1,41.8C135.2,104.4,142.2,99.6,142.3,103.9L142.3,103.9z M107.3,66c-12.5,15-11.9,24.3-12,23.8
	c0.9,6.8,10.3-11.2,15.5-16.4C112.7,70.6,111.2,61.2,107.3,66z"/>
<path class="st1" d="M175.8,54.6c0.1,4.7,17.7-14.1,27.3-11.9c2.9,0.7,6,0.8,5,3.3c-4,10.3-25.9,15.7-24.9,21.2
	c2.2,12.6,25.4,28.2,32.5,40.2c4.1,6.8-4.9,8.8-10.3,7.5c-7.6-1.8-8.9-11.5-15.3-15.1c-7.1-3.5-17.2-19.3-16.9-14.6
	c0-0.6,3.4,20.7,0.5,32.5c-0.8,3.2-9.4,6.2-12.7,4.2c0.6,0.4-3.5-1.4-3.3-4.2c-0.2-26.3-3-57.1,3.3-83.5c0.9-3.8,0-8.9,2.6-12
	c2.7-3.1,6.5-6,10.1-5c-0.5-0.1,9.6,3.1,7.8,7.7C178.3,33.8,176.4,44.2,175.8,54.6L175.8,54.6z"/>
<path class="st1" d="M247.9,54.6c0.1,4.7,17.7-14.1,27.3-11.9c2.9,0.7,6,0.8,5,3.3c-4,10.3-25.9,15.7-24.9,21.2
	c2.2,12.6,25.4,28.2,32.5,40.2c4.1,6.8-4.9,8.8-10.3,7.5c-7.6-1.8-8.9-11.5-15.3-15.1c-7.1-3.5-17.2-19.3-16.9-14.6
	c0-0.6,3.4,20.7,0.5,32.5c-0.8,3.2-9.4,6.2-12.7,4.2c0.6,0.4-3.5-1.4-3.3-4.2c-0.2-26.3-3-57.1,3.3-83.5c0.9-3.8,0-8.9,2.6-12
	c2.7-3.1,6.5-6,10.1-5c-0.5-0.1,9.6,3.1,7.8,7.7C250.3,33.8,248.4,44.2,247.9,54.6L247.9,54.6z"/>
<path class="st1" d="M341.4,96.8c-3,9.3-11.7,18.9-24,20.4c1.3-0.2-1.7,1-3.3,0.9c-4.5-0.5-3.8-0.7-6.8-4.2
	c-3.1-3.6-3.4-5.4-4.2-10.1c-1.1-6.6-3.4-12-4.2-17.9c-1.4-9.9,0.3-25.4,7.8-31.1c4.9-4.4,11.1-7.3,17.7-5c4.2,1.4,6.4,2.6,8.5,6.8
	c5,14.8-8.2,25.6-18.1,31.1c-2,1.2,0.3,7.6,2.4,13.4c1.2,3.1,3.3,6.6,6.1,4.4c5-3.3,6.8-11.5,14.4-12
	C337.9,93.4,342.7,92.7,341.4,96.8z M319.1,69.7c1.2-1.9,3.6-3.8,1.6-5.6c-5.6-5-7.6,11.2-7.5,10.3
	C312.4,79.4,317.7,72.3,319.1,69.7z"/>
<path class="st1" d="M377.2,51.4c0-0.6-4.2,38.2,0,31.3c-0.1,0.2,9.9-17.7,18.6-26.4c4.4-4.4,7.5-5.3,10.1-4.9
	c4,0.6,8.2,1.7,8.5,5.7c1,13.6-1.9,32.6,0,48.5c1.2,10.2,7,11.5,2.8,13.7c-4.7,2.5-10.4,5.1-15.5,2.4c-2.5-1.3-4.1-1.7-4.3-4.2
	c-1.3-13.6,3.1-46.9-1.6-39.3c0.2-0.3-13.8,21.7-16,34.1c-0.9,5.3-1,6.3-3.7,7c-4.5,1.2-11.7,2.3-13.4-3.7
	c-6.1-17.7-3-41.4-2.6-60.2c1.7-3.7,4.2-3.7,7-7C372.7,44.8,377.7,45.2,377.2,51.4z"/>
</svg>
